<svg width="21" height="32" viewBox="0 0 21 32" fill="none" xmlns="http://www.w3.org/2000/svg">
<path d="M12.2934 0.0956112L20.1864 4.64321C20.2991 4.70462 20.3931 4.79515 20.4585 4.90529C20.524 5.01543 20.5585 5.14112 20.5585 5.26918C20.5585 5.39723 20.524 5.52292 20.4585 5.63306C20.3931 5.7432 20.2991 5.83373 20.1864 5.89514L12.2934 10.4427C12.184 10.5058 12.0598 10.5388 11.9334 10.5384C11.8071 10.5379 11.6831 10.5041 11.5741 10.4403C11.4651 10.3765 11.375 10.285 11.313 10.1752C11.251 10.0653 11.2192 9.94105 11.221 9.81499V0.723362C11.2192 0.5973 11.251 0.473022 11.313 0.363182C11.375 0.253343 11.4651 0.161867 11.5741 0.0980712C11.6831 0.0342756 11.8071 0.000435696 11.9334 4.17963e-06C12.0598 -0.000427337 12.184 0.0325615 12.2934 0.0956112" fill="black"/>
<path d="M9.45163 21.2678H0.975943C0.786327 21.2678 0.604488 21.1927 0.470409 21.0589C0.336331 20.9251 0.260996 20.7437 0.260996 20.5545V12.1013C0.25556 11.956 0.294767 11.8125 0.373361 11.69C0.451955 11.5675 0.566169 11.472 0.700725 11.4161C0.835281 11.3602 0.983762 11.3467 1.12623 11.3774C1.2687 11.408 1.39834 11.4814 1.49784 11.5877L9.96284 20.0302C10.0707 20.1292 10.1454 20.2589 10.177 20.4017C10.2085 20.5445 10.1953 20.6935 10.1391 20.8286C10.083 20.9636 9.98651 21.0782 9.86291 21.1568C9.73931 21.2353 9.59448 21.2741 9.44805 21.2678" fill="#FF7F00"/>
<path d="M9.4552 31.9859H0.975934C0.786318 31.9859 0.604479 31.9107 0.4704 31.7769C0.336321 31.6432 0.260986 31.4617 0.260986 31.2725V22.8158C0.260986 22.6266 0.336321 22.4451 0.4704 22.3114C0.604479 22.1776 0.786318 22.1024 0.975934 22.1024H9.44093C9.63055 22.1024 9.81239 22.1776 9.94647 22.3114C10.0805 22.4451 10.1559 22.6266 10.1559 22.8158V31.2618C10.1559 31.451 10.0805 31.6325 9.94647 31.7662C9.81239 31.9 9.63055 31.9752 9.44093 31.9752" fill="#FF7F00"/>
<path d="M5.2227 10.4748C4.19046 10.4755 3.18118 10.1708 2.3225 9.59921C1.46383 9.02759 0.794314 8.21475 0.398639 7.26349C0.00296331 6.31222 -0.101092 5.26525 0.099595 4.25496C0.300282 3.24468 0.796724 2.31646 1.52613 1.58769C2.25554 0.858915 3.18514 0.362318 4.19741 0.160696C5.20968 -0.0409266 6.25917 0.0614801 7.21311 0.454968C8.16705 0.848455 8.98261 1.51535 9.55668 2.37132C10.1308 3.22729 10.4375 4.23388 10.4382 5.26382C10.4382 5.9472 10.3033 6.6239 10.0412 7.25526C9.77912 7.88663 9.39494 8.46029 8.91063 8.94352C8.42633 9.42674 7.85139 9.81006 7.21861 10.0716C6.58583 10.3331 5.90762 10.4677 5.2227 10.4677" fill="#FF7F00"/>
<path d="M11.7895 21.2678C14.1496 21.0822 16.3658 20.0624 18.0394 18.3918C19.7131 16.7212 20.7343 14.5096 20.9194 12.1547C20.9289 12.0555 20.9174 11.9554 20.8858 11.8609C20.8541 11.7664 20.803 11.6795 20.7356 11.6059C20.6682 11.5323 20.5862 11.4736 20.4947 11.4336C20.4032 11.3936 20.3043 11.3732 20.2045 11.3736H11.743C11.5534 11.3736 11.3716 11.4488 11.2375 11.5825C11.1034 11.7163 11.0281 11.8978 11.0281 12.087V20.533C11.0276 20.6327 11.0481 20.7313 11.0882 20.8226C11.1283 20.9139 11.1871 20.9958 11.2609 21.063C11.3346 21.1302 11.4217 21.1812 11.5165 21.2128C11.6112 21.2444 11.7115 21.2558 11.811 21.2464" fill="#FF7F00"/>
</svg>
